<svg viewBox="0 0 512 512" xmlns="http://www.w3.org/2000/svg"><g transform="matrix(1.51515 0 0 1.5271 -131.879 -219.875)" stroke="#4b4b4b" stroke-width="8"><rect x="124" y="156.424" width="264" height="199.152" fill="#fff" rx="16"/><path d="M157 256h198m-198 31.277h198m-198 31.276h198M157 193.447h198m-198 31.277h197.999"/></g><g transform="translate(-159.36 -329.285)scale(1.6225)"><rect x="108.08" y="378.641" width="295.84" height="128.359" rx="24" fill="#60a5fa" stroke="#4b4b4b" stroke-width="8"/><g transform="translate(-3.165)" fill="#4b4b4b"><circle cx="163.165" cy="402.924" r="12"/><circle cx="211.165" cy="402.924" r="12"/><circle cx="259.165" cy="402.924" r="12"/><circle cx="307.165" cy="402.924" r="12"/><circle cx="187.165" cy="426.924" r="12"/><circle cx="235.165" cy="426.924" r="12"/><circle cx="283.165" cy="426.924" r="12"/><circle cx="331.165" cy="426.924" r="12"/><circle cx="355.165" cy="402.924" r="12"/><circle cx="379.165" cy="426.924" r="12"/><circle cx="139.165" cy="426.924" r="12"/><circle cx="210.515" cy="450.924" r="12"/><circle cx="258.515" cy="450.924" r="12"/><circle cx="306.515" cy="450.924" r="12"/><circle cx="354.515" cy="450.924" r="12"/><circle cx="162.515" cy="450.924" r="12"/></g><rect x="192" y="472" width="128" height="24" fill="#4b4b4b" rx="12"/></g></svg>