<?xml version="1.0" standalone="no"?>
<!DOCTYPE svg PUBLIC "-//W3C//DTD SVG 20010904//EN"
 "http://www.w3.org/TR/2001/REC-SVG-20010904/DTD/svg10.dtd">
<svg version="1.0" xmlns="http://www.w3.org/2000/svg"
 width="700.000000pt" height="700.000000pt" viewBox="0 0 700.000000 700.000000"
 preserveAspectRatio="xMidYMid meet">
<metadata>
Created by potrace 1.14, written by Peter Selinger 2001-2017
</metadata>
<g transform="translate(0.000000,700.000000) scale(0.100000,-0.100000)"
fill="#000000" stroke="none">
<path d="M963 6801 c-92 -33 -188 -115 -228 -192 -53 -102 -50 23 -55 -1768
l-5 -1654 -63 -13 c-109 -22 -206 -78 -297 -169 -91 -91 -134 -165 -165 -289
-19 -77 -20 -112 -20 -1035 0 -1060 -1 -1028 66 -1169 51 -106 168 -224 274
-275 149 -73 -113 -67 3030 -67 3143 0 2881 -6 3030 67 106 51 223 169 274
275 69 143 67 110 64 1196 l-3 977 -27 80 c-69 203 -251 368 -450 409 l-63 13
-5 1654 c-5 1556 -6 1657 -23 1699 -45 113 -119 195 -222 246 l-60 29 -2500 2
c-2418 2 -2502 2 -2552 -16z m4980 -147 c61 -11 138 -63 172 -118 l30 -49 3
-1649 2 -1648 -2650 0 -2650 0 2 1648 3 1649 30 49 c32 51 113 109 164 117 43
7 4853 7 4894 1z"/>
<path d="M1450 5965 l0 -85 2050 0 2050 0 0 85 0 85 -2050 0 -2050 0 0 -85z"/>
<path d="M1450 5315 l0 -85 2050 0 2050 0 0 85 0 85 -2050 0 -2050 0 0 -85z"/>
<path d="M1450 4660 l0 -80 2050 0 2050 0 0 80 0 80 -2050 0 -2050 0 0 -80z"/>
<path d="M1450 4005 l0 -85 2050 0 2050 0 0 85 0 85 -2050 0 -2050 0 0 -85z"/>
<path d="M1450 3355 l0 -85 2050 0 2050 0 0 85 0 85 -2050 0 -2050 0 0 -85z"/>
</g>
</svg>
